name Walk1.mot
datacolumns 19
datarows 12
range 1.74000000 1.79500000
endheader

                time	   L_ground_force_vx	   L_ground_force_vy	   L_ground_force_vz	   L_ground_force_px	   L_ground_force_py	   L_ground_force_pz	   R_ground_force_vx	   R_ground_force_vy	   R_ground_force_vz	   R_ground_force_px	   R_ground_force_py	   R_ground_force_pz	   L_ground_torque_x	   L_ground_torque_y	   L_ground_torque_z	   R_ground_torque_x	   R_ground_torque_y	   R_ground_torque_z	
          1.74000000	         10.11052340	        984.19493152	         60.68020113	         -0.26024220	          0.00000000	         -0.03803147	          0.00310075	         -0.01442253	         -0.00145593	          0.00001331	          0.00000000	          0.00000619	          0.00000000	         -1.10353312	          0.00000000	          0.00000000	         -0.00045547	          0.00000000	
          1.74500000	         11.50032621	        988.98111368	         61.69301977	         -0.25827956	          0.00000000	         -0.03824856	          0.00181012	          0.00790174	          0.00086493	          0.00003300	          0.00000000	          0.00001515	          0.00000000	         -1.08124524	          0.00000000	          0.00000000	         -0.00032767	          0.00000000	
          1.75000000	         13.05986525	        993.47041571	         62.69962128	         -0.25635488	          0.00000000	         -0.03844349	         -0.00042570	          0.04173924	          0.00437737	          0.00005963	          0.00000000	          0.00002725	          0.00000000	         -1.06470917	          0.00000000	          0.00000000	         -0.00008798	          0.00000000	
          1.75500000	         14.80771817	        997.65940776	         63.69956854	         -0.25446907	          0.00000000	         -0.03861558	         -0.00385969	          0.08935713	          0.00931475	          0.00009380	          0.00000000	          0.00004276	          0.00000000	         -1.05619105	          0.00000000	          0.00000000	          0.00029665	          0.00000000	
          1.76000000	         16.75406154	       1001.55488813	         64.68984765	         -0.25262173	          0.00000000	         -0.03876479	         -0.00873858	          0.15259126	          0.01586523	          0.00013552	          0.00000000	          0.00006168	          0.00000000	         -1.05749734	          0.00000000	          0.00000000	          0.00085984	          0.00000000	
          1.76500000	         18.90140064	       1005.17441086	         65.66649153	         -0.25081087	          0.00000000	         -0.03889196	         -0.01526891	          0.23237850	          0.02412328	          0.00018386	          0.00000000	          0.00008356	          0.00000000	         -1.06977130	          0.00000000	          0.00000000	          0.00163203	          0.00000000	
          1.77000000	         21.24535201	       1008.54895335	         66.62645947	         -0.24903342	          0.00000000	         -0.03899865	         -0.02356908	          0.32813829	          0.03402564	          0.00023656	          0.00000000	          0.00010738	          0.00000000	         -1.09317173	          0.00000000	          0.00000000	          0.00263489	          0.00000000	
          1.77500000	         23.77672213	       1011.72380590	         67.56851358	         -0.24728652	          0.00000000	         -0.03908643	         -0.03360548	          0.43699551	          0.04527086	          0.00028958	          0.00000000	          0.00013128	          0.00000000	         -1.12684611	          0.00000000	          0.00000000	          0.00387377	          0.00000000	
          1.78000000	         26.48461525	       1014.75872133	         68.49385357	         -0.24556817	          0.00000000	         -0.03915573	         -0.04511154	          0.55285144	          0.05722326	          0.00033654	          0.00000000	          0.00015237	          0.00000000	         -1.16912023	          0.00000000	          0.00000000	          0.00532791	          0.00000000	
          1.78500000	         29.35750691	       1017.72845017	         69.40672142	         -0.24387771	          0.00000000	         -0.03920544	         -0.05749033	          0.66533271	          0.06880436	          0.00036825	          0.00000000	          0.00016645	          0.00000000	         -1.21780150	          0.00000000	          0.00000000	          0.00693839	          0.00000000	
          1.79000000	         32.38402512	       1020.72112935	         70.31404836	         -0.24221596	          0.00000000	         -0.03923333	         -0.06970339	          0.75867951	          0.07837818	          0.00037230	          0.00000000	          0.00016789	          0.00000000	         -1.27046248	          0.00000000	          0.00000000	          0.00859404	          0.00000000	
          1.79500000	         35.55560441	       1023.83468246	         71.22583965	         -0.24058519	          0.00000000	         -0.03923637	         -0.08015181	          0.81067614	          0.08364116	          0.00033269	          0.00000000	          0.00014942	          0.00000000	         -1.32403700	          0.00000000	          0.00000000	          0.01011594	          0.00000000	
